REM DIRINDEX 1\2\4,1\2\5,1\3\6,1\3\7,1\3\8
REM DIRNAME folder01,folder02,folder03,folder04,folder05,folder06,folder07,folder08
TITLE ""
FILE "LEVEL1-016-midashigo.mp3" MP3
  TRACK 01 AUDIO
    TITLE "0:"
    INDEX 01 00:00:00
  TRACK 02 AUDIO
    TITLE "6:cjc092_0623"
    INDEX 01 00:00:13
  TRACK 03 AUDIO
    TITLE "0:"
    INDEX 01 00:02:57
  TRACK 04 AUDIO
    TITLE "7:cjc092_0624"
    INDEX 01 00:03:27
  TRACK 05 AUDIO
    TITLE "8:cjc092_0625"
    INDEX 01 00:04:60
  TRACK 06 AUDIO
    TITLE "0:"
    INDEX 01 00:07:54
  TRACK 07 AUDIO
    TITLE "7:cjc092_0626"
    INDEX 01 00:08:11
  TRACK 08 AUDIO
    TITLE "8:cjc092_0627"
    INDEX 01 00:09:44
  TRACK 09 AUDIO
    TITLE "0:"
    INDEX 01 00:12:30
  TRACK 10 AUDIO
    TITLE "7:cjc092_0628"
    INDEX 01 00:12:61
  TRACK 11 AUDIO
    TITLE "8:cjc092_0629"
    INDEX 01 00:14:15
  TRACK 12 AUDIO
    TITLE "0:"
    INDEX 01 00:15:66
  TRACK 13 AUDIO
    TITLE "7:cjc092_0630"
    INDEX 01 00:16:16
  TRACK 14 AUDIO
    TITLE "8:cjc092_0631"
    INDEX 01 00:17:43
  TRACK 15 AUDIO
    TITLE "0:"
    INDEX 01 00:18:66
  TRACK 16 AUDIO
    TITLE "7:cjc092_0632"
    INDEX 01 00:19:22
  TRACK 17 AUDIO
    TITLE "8:cjc092_0633"
    INDEX 01 00:20:55
  TRACK 18 AUDIO
    TITLE "0:"
    INDEX 01 00:23:36
  TRACK 19 AUDIO
    TITLE "7:cjc092_0634"
    INDEX 01 00:23:67
  TRACK 20 AUDIO
    TITLE "8:cjc092_0635"
    INDEX 01 00:25:27
  TRACK 21 AUDIO
    TITLE "0:"
    INDEX 01 00:26:62
  TRACK 22 AUDIO
    TITLE "7:cjc092_0636"
    INDEX 01 00:27:20
  TRACK 23 AUDIO
    TITLE "8:cjc092_0637"
    INDEX 01 00:28:53
  TRACK 24 AUDIO
    TITLE "0:"
    INDEX 01 00:31:27
  TRACK 25 AUDIO
    TITLE "7:cjc092_0638"
    INDEX 01 00:31:55
  TRACK 26 AUDIO
    TITLE "8:cjc092_0639"
    INDEX 01 00:33:13
  TRACK 27 AUDIO
    TITLE "0:"
    INDEX 01 00:34:51
  TRACK 28 AUDIO
    TITLE "7:cjc092_0640"
    INDEX 01 00:35:06
  TRACK 29 AUDIO
    TITLE "8:cjc092_0641"
    INDEX 01 00:36:29
  TRACK 30 AUDIO
    TITLE "0:"
    INDEX 01 00:38:65
  TRACK 31 AUDIO
    TITLE "7:cjc092_0642"
    INDEX 01 00:39:17
  TRACK 32 AUDIO
    TITLE "8:cjc092_0643"
    INDEX 01 00:40:40
  TRACK 33 AUDIO
    TITLE "0:"
    INDEX 01 00:42:39
  TRACK 34 AUDIO
    TITLE "7:cjc092_0644"
    INDEX 01 00:42:70
  TRACK 35 AUDIO
    TITLE "8:cjc092_0645"
    INDEX 01 00:44:20
  TRACK 36 AUDIO
    TITLE "0:"
    INDEX 01 00:46:29
  TRACK 37 AUDIO
    TITLE "7:cjc092_0646"
    INDEX 01 00:46:60
  TRACK 38 AUDIO
    TITLE "8:cjc092_0647"
    INDEX 01 00:47:70
  TRACK 39 AUDIO
    TITLE "0:"
    INDEX 01 00:50:03
  TRACK 40 AUDIO
    TITLE "7:cjc092_0648"
    INDEX 01 00:50:35
  TRACK 41 AUDIO
    TITLE "8:cjc092_0649"
    INDEX 01 00:51:54
  TRACK 42 AUDIO
    TITLE "0:"
    INDEX 01 00:53:33
  TRACK 43 AUDIO
    TITLE "7:cjc092_0650"
    INDEX 01 00:53:58
  TRACK 44 AUDIO
    TITLE "8:cjc092_0651"
    INDEX 01 00:55:12
  TRACK 45 AUDIO
    TITLE "0:"
    INDEX 01 00:57:62
  TRACK 46 AUDIO
    TITLE "7:cjc092_0652"
    INDEX 01 00:58:18
  TRACK 47 AUDIO
    TITLE "8:cjc092_0653"
    INDEX 01 01:01:21
  TRACK 48 AUDIO
    TITLE "0:"
    INDEX 01 01:04:62
  TRACK 49 AUDIO
    TITLE "7:cjc092_0654"
    INDEX 01 01:05:17
  TRACK 50 AUDIO
    TITLE "8:cjc092_0655"
    INDEX 01 01:06:30
  TRACK 51 AUDIO
    TITLE "0:"
    INDEX 01 01:09:24
  TRACK 52 AUDIO
    TITLE "7:cjc092_0656"
    INDEX 01 01:09:56
  TRACK 53 AUDIO
    TITLE "8:cjc092_0657"
    INDEX 01 01:10:69
  TRACK 54 AUDIO
    TITLE "0:"
    INDEX 01 01:12:09
  TRACK 55 AUDIO
    TITLE "7:cjc092_0658"
    INDEX 01 01:12:34
  TRACK 56 AUDIO
    TITLE "8:cjc092_0659"
    INDEX 01 01:13:55
  TRACK 57 AUDIO
    TITLE "0:"
    INDEX 01 01:16:14
  TRACK 58 AUDIO
    TITLE "7:cjc092_0660"
    INDEX 01 01:16:42
  TRACK 59 AUDIO
    TITLE "8:cjc092_0661"
    INDEX 01 01:18:02
  TRACK 60 AUDIO
    TITLE "0:"
    INDEX 01 01:19:23
